<svg id="Capa_1" data-name="Capa 1" xmlns="http://www.w3.org/2000/svg" viewBox="0 0 60.74 26.2"><defs><style>.cls-1{fill:#149cd8;}</style></defs><title>aysaaa</title><path class="cls-1" d="M291.41,419.82c1-3.41,1.85-5.76,2.43-8.17.52-2.17,1.71-3.4,3.87-2.7,2.56.83.61,2.59.22,3.65-1.76,4.83-3.72,9.59-5.74,14.32a9.39,9.39,0,0,1-2.33,3.18c-1.28,1.14-2.91,3.28-4.57,1.72-2.07-1.94-.13-3.3,1.69-4.47s2.17-3,1.16-5.2a85.38,85.38,0,0,1-3.85-9.72c-.33-1-2.39-2.79.28-3.53a2.85,2.85,0,0,1,3.79,2.22C289.11,413.65,290.09,416.11,291.41,419.82Z" transform="translate(-267.12 -408.13)"/><path class="cls-1" d="M327.81,419.43c-.62,1.6,1,5.46-.92,5.3-3.8-.3-7.78,2.5-11.36-.37-2.48-2-2.22-6.26.58-8.14,1.19-.81,2.74-1.07,4.1-1.66.91-.4,2.75.38,2.55-1.44-.14-1.27-1.53-1.4-2.75-1.6-1.59-.27-4.52,2.6-4.51-1,0-2.1,3.3-2.14,5.41-2.15C326.27,408.39,327.8,410.81,327.81,419.43Zm-4.22-.06c.1-1.58-.72-2-1.84-1.88-1.71.16-3.36.65-3.51,2.7a1.9,1.9,0,0,0,2.19,2.09A3.24,3.24,0,0,0,323.59,419.37Z" transform="translate(-267.12 -408.13)"/><path class="cls-1" d="M276.63,414c-1.39-3-3.4-2.73-5.58-2-1,.36-2,.43-2.34-.92s.55-1.64,1.49-2.09c5.4-2.58,10.58.5,10.79,6.47a13.08,13.08,0,0,1,0,2c-.27,2.44,1.23,6.13-.63,7-2.67,1.29-6.28.86-9.48.78-2-.05-3.14-1.74-3.6-3.62a5.06,5.06,0,0,1,2-5.27C271.26,414.71,273.82,414.66,276.63,414Zm.12,5.48c.12-1.34-.3-2-1.59-2-1.85,0-3.28.78-3.66,2.59-.27,1.27.62,2.14,2,2.22C275.55,422.4,276.36,421.1,276.75,419.52Z" transform="translate(-267.12 -408.13)"/><path class="cls-1" d="M303.54,425.39a4.14,4.14,0,0,1-1.63-.25c-1-.29-1.87-.83-1.45-2.15.37-1.14,1-1.5,2.25-1.09,1.56.52,3.71,1.26,4.43-.63.8-2.08-1.54-2.39-3-3.07-2.87-1.39-4.74-3.51-3.09-6.74s4.65-3.46,7.79-2.81c1.14.24,2.35.72,1.88,2.34-.38,1.29-1.31,1.22-2.37.88-1.35-.43-2.93-.62-3.24,1.12s1.51,1.91,2.65,2.46c2.6,1.25,4.73,3,3.79,6.13S308,425.71,303.54,425.39Z" transform="translate(-267.12 -408.13)"/><path class="cls-1" d="M279.29,434.29c-4,.47-6.55-2.81-9.85-1.33a8.53,8.53,0,0,1-.9-2.72c0-1.17,1.24-1.36,2.18-1.59,3.53-.85,6.39,2.45,10,1.69a4.59,4.59,0,0,1,.9,2.59C281.3,434.7,279.6,434.22,279.29,434.29Z" transform="translate(-267.12 -408.13)"/></svg>