<svg xmlns="http://www.w3.org/2000/svg" xmlns:xlink="http://www.w3.org/1999/xlink" viewBox="0 0 261.25 77.01"><defs><style>.cls-1{isolation:isolate;}.cls-2{fill:url(#linear-gradient);}.cls-3{opacity:0.2;mix-blend-mode:multiply;fill:url(#linear-gradient-2);}.cls-4{opacity:0.7;}.cls-5{fill:#fff;}.cls-6{fill:url(#linear-gradient-3);}.cls-7{fill:url(#linear-gradient-4);}.cls-8{font-size:27px;fill:#9dadcd;font-family:ScriptMTBold, Script MT Bold;}.cls-9{letter-spacing:-0.04em;}.cls-10{letter-spacing:-0.02em;}</style><linearGradient id="linear-gradient" x1="141.6" y1="-9.49" x2="117.42" y2="203.65" gradientUnits="userSpaceOnUse"><stop offset="0" stop-color="#9dadcd"/><stop offset="1" stop-color="#34346c"/></linearGradient><linearGradient id="linear-gradient-2" x1="380.91" y1="8.46" x2="37.03" y2="138.23" xlink:href="#linear-gradient"/><linearGradient id="linear-gradient-3" x1="247.53" y1="73.68" x2="139.17" y2="114.57" xlink:href="#linear-gradient"/><linearGradient id="linear-gradient-4" x1="179.55" y1="95.44" x2="152.36" y2="105.7" gradientUnits="userSpaceOnUse"><stop offset="0" stop-color="#676d94"/><stop offset="1" stop-color="#1c1c5c"/></linearGradient></defs><title>logoappwallet</title><g class="cls-1"><g id="Capa_1" data-name="Capa 1"><path class="cls-2" d="M169.2,72,174.34,132a5.19,5.19,0,0,1-1.32,4,5.12,5.12,0,0,1-3.3,1.61L94.11,144a5.61,5.61,0,0,1-6.18-5.06L83.18,75.16a5.41,5.41,0,0,1,5.34-5.72L163.67,67A5.49,5.49,0,0,1,169.2,72Z" transform="translate(-83.17 -66.99)"/><path class="cls-3" d="M173.1,136a5.17,5.17,0,0,1-3.33,1.61L94.13,144a5.63,5.63,0,0,1-6.2-5.06L83.18,75.16a5.41,5.41,0,0,1,5.34-5.72l.88,0c.32,1.65.74,3.5,1.15,5.27.06.25.11.51.17.75.47,2,.87,3.73,1,3.94C94,86.43,97.36,94.55,104.4,98.49c10.76,6,24.39,5,35.7,8.26,7.45,2.18,15.11,5.12,21,10A34.58,34.58,0,0,1,171.26,130,36,36,0,0,1,173.1,136Z" transform="translate(-83.17 -66.99)"/><g class="cls-4"><path class="cls-5" d="M163.67,135h0l-2.61.16a.55.55,0,0,1-.58-.51.49.49,0,0,1,.49-.54l2.6-.18h0a4.19,4.19,0,0,0,1.3-.31.51.51,0,0,1,.67.32.56.56,0,0,1-.33.71A5.14,5.14,0,0,1,163.67,135Zm-6.69.44-4.1.34a.54.54,0,0,1-.58-.49.55.55,0,0,1,.49-.59l4.1-.33a.55.55,0,0,1,.59.49A.54.54,0,0,1,157,135.44Zm-8.22.68-4.15.34a.55.55,0,0,1-.59-.5.53.53,0,0,1,.5-.58l4.15-.34a.54.54,0,0,1,.59.49A.55.55,0,0,1,148.76,136.12Zm-8.32.68-4.2.34a.55.55,0,0,1-.6-.5.56.56,0,0,1,.51-.59l4.2-.34a.55.55,0,1,1,.09,1.09Zm-8.42.69-4.25.35a.55.55,0,1,1-.09-1.1l4.25-.34a.55.55,0,0,1,.6.5A.56.56,0,0,1,132,137.49Zm-8.53.7-4.3.35a.56.56,0,0,1-.61-.51.55.55,0,0,1,.52-.59l4.31-.35a.55.55,0,0,1,.6.5A.57.57,0,0,1,123.49,138.19Zm-8.63.7-4.35.36a.56.56,0,1,1-.09-1.11l4.36-.35a.55.55,0,1,1,.08,1.1Zm-8.73.72-4.41.36a.57.57,0,0,1-.62-.51.58.58,0,0,1,.54-.61l4.41-.36a.58.58,0,0,1,.62.51A.59.59,0,0,1,106.13,139.61Zm-8.84.59h-.12a7.36,7.36,0,0,1-4.27-2,.54.54,0,0,1,0-.79.62.62,0,0,1,.84,0,6.18,6.18,0,0,0,3.57,1.66.56.56,0,0,1,.51.63A.59.59,0,0,1,97.29,140.2Zm70.94-8a.52.52,0,0,1-.34-.09.52.52,0,0,1-.15-.74,5.46,5.46,0,0,0,.88-3.5.53.53,0,1,1,1.06-.08,6.52,6.52,0,0,1-1.05,4.17A.59.59,0,0,1,168.23,132.2Zm-76.74,2.39a.57.57,0,0,1-.64-.48,2,2,0,0,1,0-.24l-.31-4a.55.55,0,0,1,.5-.61.53.53,0,0,1,.58.51l.31,4c0,.07.07.13.08.2a.55.55,0,0,1-.5.62Zm77.59-8.25c-.29,0-.45-.2-.47-.49l-.34-4c0-.29.09-.55.38-.57s.45.2.48.49l.34,4C169.49,126.06,169.38,126.32,169.08,126.34Zm-78.3-.22a.53.53,0,0,1-.58-.52l-.32-4.24a.53.53,0,0,1,.5-.6.54.54,0,0,1,.58.51l.32,4.24A.55.55,0,0,1,90.78,126.12Zm77.62-7.81c-.29,0-.45-.2-.47-.49l-.34-4c0-.29.09-.55.38-.57s.45.2.47.5l.34,4C168.81,118,168.69,118.29,168.4,118.31Zm-78.26-.67a.54.54,0,0,1-.58-.52l-.32-4.23a.54.54,0,1,1,1.08-.08l.32,4.23A.53.53,0,0,1,90.14,117.64Zm77.58-7.34c-.29,0-.45-.21-.48-.5l-.34-4c0-.29.1-.54.39-.56s.45.21.47.5l.34,4C168.13,110,168,110.28,167.72,110.3Zm-78.21-1.12a.53.53,0,0,1-.58-.52l-.32-4.22a.52.52,0,0,1,.5-.59.54.54,0,0,1,.58.52l.32,4.22A.53.53,0,0,1,89.51,109.18ZM167,102.3c-.29,0-.45-.21-.47-.5l-.34-4c0-.29.09-.54.38-.55s.45.2.47.49l.34,4C167.45,102,167.33,102.28,167,102.3Zm-78.16-1.56a.55.55,0,0,1-.59-.52L88,96a.52.52,0,0,1,.5-.59.55.55,0,0,1,.58.52l.31,4.21A.51.51,0,0,1,88.88,100.74Zm77.48-6.42c-.29,0-.45-.21-.47-.5l-.34-4c0-.29.09-.54.38-.55s.45.21.48.5l.33,4C166.77,94.06,166.65,94.3,166.36,94.32Zm-78.12-2a.55.55,0,0,1-.58-.52l-.31-4.21a.51.51,0,0,1,.5-.58.56.56,0,0,1,.58.53l.31,4.2A.52.52,0,0,1,88.24,92.32Zm77.44-6c-.29,0-.45-.22-.47-.51l-.34-4c0-.29.09-.53.39-.55s.44.22.47.51l.34,4C166.09,86.1,166,86.34,165.68,86.36ZM87.61,83.92a.56.56,0,0,1-.58-.53l-.23-3.16a6.11,6.11,0,0,1,0-1.13.57.57,0,0,1,.65-.48.54.54,0,0,1,.47.62,6,6,0,0,0-.07,1l.24,3.15A.51.51,0,0,1,87.61,83.92ZM165,78.41c-.29,0-.45-.22-.48-.51l-.06-.76a5.63,5.63,0,0,0-1.09-2.75.49.49,0,1,1,.79-.57,6.69,6.69,0,0,1,1.16,3.28l.06.77C165.42,78.16,165.3,78.4,165,78.41ZM89.28,76a.58.58,0,0,1-.45-.16.52.52,0,0,1,0-.78A7.2,7.2,0,0,1,93,73.17a.59.59,0,0,1,.66.49.52.52,0,0,1-.49.6,6,6,0,0,0-3.53,1.62A.55.55,0,0,1,89.28,76Zm71.28-3.8a.63.63,0,0,1-.19,0,5.56,5.56,0,0,0-2-.29l-1.8.06a.56.56,0,0,1-.58-.51.49.49,0,0,1,.49-.54l1.81-.06a6.48,6.48,0,0,1,2.39.35.54.54,0,0,1,.37.66A.52.52,0,0,1,160.56,72.23Zm-8.07-.11-4.07.14a.57.57,0,0,1-.59-.51.5.5,0,0,1,.5-.54l4.07-.15a.56.56,0,0,1,.58.51A.5.5,0,0,1,152.49,72.12Zm-8.18.29-4.12.15a.57.57,0,0,1-.59-.51.51.51,0,0,1,.5-.55l4.13-.15a.56.56,0,0,1,.58.51A.51.51,0,0,1,144.31,72.41Zm-8.27.3-4.18.15a.57.57,0,0,1-.59-.52.51.51,0,0,1,.51-.55l4.17-.15a.57.57,0,0,1,.59.52A.51.51,0,0,1,136,72.71Zm-8.38.3-4.22.15a.57.57,0,0,1-.6-.52.53.53,0,0,1,.51-.56l4.23-.14a.57.57,0,0,1,.6.51A.53.53,0,0,1,127.66,73Zm-8.47.3-4.27.16a.58.58,0,0,1-.61-.52.53.53,0,0,1,.52-.57l4.27-.15a.59.59,0,0,1,.61.52A.53.53,0,0,1,119.19,73.31Zm-8.58.31-4.32.16a.6.6,0,0,1-.62-.53.53.53,0,0,1,.53-.56l4.33-.15a.58.58,0,0,1,.61.52A.53.53,0,0,1,110.61,73.62Zm-8.68.31-4.38.16a.59.59,0,0,1-.62-.53.54.54,0,0,1,.54-.56l4.38-.16a.6.6,0,0,1,.62.53A.54.54,0,0,1,101.93,73.93Z" transform="translate(-83.17 -66.99)"/></g><path class="cls-6" d="M172.25,88.54a1.58,1.58,0,0,0-1.49-.12L155.38,95a5.7,5.7,0,0,0-3.51,5.59l.53,6.38a6.09,6.09,0,0,0,4.81,5.25l15.92,3.49a1.65,1.65,0,0,0,1.43-.36,1.63,1.63,0,0,0,.56-1.35L173,89.83A1.68,1.68,0,0,0,172.25,88.54Z" transform="translate(-83.17 -66.99)"/><path class="cls-7" d="M162.09,103.05a3.13,3.13,0,0,1-3,3.4,3.33,3.33,0,0,1-3.51-3,3.13,3.13,0,0,1,3-3.39A3.32,3.32,0,0,1,162.09,103.05Z" transform="translate(-83.17 -66.99)"/><text class="cls-8" transform="translate(115.31 23.37)">A<tspan class="cls-9" x="18.27" y="0">p</tspan><tspan x="32.39" y="0">p</tspan></text><text class="cls-8" transform="translate(132.41 50.85)"><tspan class="cls-10">W</tspan><tspan x="25.33" y="0">allet</tspan></text></g></g></svg>